<svg width="425" height="99" viewBox="0 0 425 99" fill="none" xmlns="http://www.w3.org/2000/svg">
<path d="M128.462 79.9935H116.868V9.28378H128.557V39.1263C131.504 34.5644 137.016 31.6182 143.764 31.6182C155.359 31.6182 161.441 38.9363 161.441 51.1014V79.9935H149.846V53.8575C149.846 45.9692 145.95 42.1676 140.057 42.1676C132.739 42.1676 128.462 47.2998 128.462 54.3327V79.9935Z" fill="black"/>
<path d="M170.077 56.4236C170.077 41.7875 180.627 31.7132 195.168 31.7132C209.709 31.7132 220.258 41.7875 220.258 56.4236C220.258 71.0598 209.709 81.134 195.168 81.134C180.627 81.134 170.077 71.0598 170.077 56.4236ZM181.672 56.4236C181.672 64.9772 187.184 70.7747 195.168 70.7747C203.151 70.7747 208.664 64.9772 208.664 56.4236C208.664 47.87 203.151 42.0726 195.168 42.0726C187.184 42.0726 181.672 47.87 181.672 56.4236Z" fill="black"/>
<path d="M258.911 32.8537V43.5932H254.635C246.271 43.5932 241.044 48.0601 241.044 57.1839V79.9935H229.449V33.1388H240.379L241.044 39.9817C243.04 35.3247 247.507 32.1884 253.779 32.1884C255.395 32.1884 257.011 32.3785 258.911 32.8537Z" fill="black"/>
<path d="M262.426 56.4236C262.426 41.7875 272.975 31.7132 287.516 31.7132C302.057 31.7132 312.607 41.7875 312.607 56.4236C312.607 71.0598 302.057 81.134 287.516 81.134C272.975 81.134 262.426 71.0598 262.426 56.4236ZM274.021 56.4236C274.021 64.9772 279.533 70.7747 287.516 70.7747C295.5 70.7747 301.012 64.9772 301.012 56.4236C301.012 47.87 295.5 42.0726 287.516 42.0726C279.533 42.0726 274.021 47.87 274.021 56.4236Z" fill="black"/>
<path d="M341.091 81.2291C327.5 81.2291 319.041 71.2499 319.041 56.7087C319.041 42.0726 327.595 31.6182 341.756 31.6182C348.314 31.6182 354.111 34.3743 357.057 39.0313V9.28378H368.557V79.9935H357.913L357.152 72.6755C354.301 78.0928 348.219 81.2291 341.091 81.2291ZM343.657 70.5846C351.735 70.5846 356.962 64.7871 356.962 56.3286C356.962 47.87 351.735 41.9775 343.657 41.9775C335.578 41.9775 330.636 47.9651 330.636 56.3286C330.636 64.6921 335.578 70.5846 343.657 70.5846Z" fill="black"/>
<path d="M401.644 81.2291C387.674 81.2291 377.884 71.0598 377.884 56.5187C377.884 41.7875 387.484 31.6182 401.264 31.6182C415.33 31.6182 424.264 41.0271 424.264 55.6633V59.1798L388.909 59.2748C389.764 67.5433 394.136 71.7251 401.835 71.7251C408.202 71.7251 412.384 69.254 413.715 64.7871H424.454C422.458 75.0515 413.905 81.2291 401.644 81.2291ZM401.359 41.1222C394.516 41.1222 390.335 44.8287 389.194 51.8617H412.764C412.764 45.399 408.297 41.1222 401.359 41.1222Z" fill="black"/>
<path fill-rule="evenodd" clip-rule="evenodd" d="M49.5 0C76.8381 0 99 22.1619 99 49.5C99 76.8381 76.8381 99 49.5 99C22.1619 99 0 76.8381 0 49.5C0 22.1619 22.1619 0 49.5 0ZM23.3168 22.9332V60.6684L40.8483 76.4466V22.9332H23.3168ZM58.2963 45.5578C58.2963 45.5578 46.6644 66.1223 40.8483 76.4466L58.2963 57.4123V76.4466H75.8278V45.5578H58.2963Z" fill="black"/>
</svg>
